<svg xmlns="http://www.w3.org/2000/svg" viewBox="0 0 568.61 466.35"><defs><style>.cls-1{fill:#fff;}</style></defs><g id="Capa_2" data-name="Capa 2"><g id="Layer_1" data-name="Layer 1"><path class="cls-1" d="M429,230.25c-74,8-104.51,32.53-109.7,37.19,6-5.57,45-40,95.06-52.2C478.25,199.71,560.1,178,568.61,95.71c0,0-12,59.07-109,63.53-82.9,3.81-112.56,31.86-112.56,31.86s15.85-26,89-47.76C507.45,122.12,562.72,65,553.11,0c0,0,1.3,47-134.24,94.49-144.4,50.58-263,135.56-264.12,305.67-23.46-107.57,24.63-180.19,51-211.53-13.6-44-58.65-72.37-58.65-72.37-61.63-31.88-100.7,28-100.7,28C-15.95,179.9,2.57,207.89,2.57,207.89,7.16,190.55,56.21,167.05,77,181.32S94.29,217,58.53,285.71C12,375.12,159.74,466.35,159.74,466.35s24-69.08,108.28-78.19C382.35,375.78,449.57,370.9,502.8,321c0,0-77.91,37.67-160,27.51,0,0,149.67-20.93,181.16-84.19,0,0-18.78,25.52-109.56,30.24C329.49,299,272.82,329,272.82,329S319,295.25,396.7,277.63C513,251.25,543,206.94,548.29,190.55,548.29,190.55,536.84,218.62,429,230.25Z"/></g></g></svg>